<svg xmlns="http://www.w3.org/2000/svg" viewBox="0 0 1488.709 624.679"><defs><style>.cls-1{fill:#5ebebb;}.cls-2{fill:#ec6a6d;}</style></defs><g id="Layer_2" data-name="Layer 2"><g id="Capa_1" data-name="Capa 1"><path class="cls-1" d="M9.118,621.877V575.882h6.91a30.23,30.23,0,0,1,7.359.717,11.067,11.067,0,0,1,4.678,2.411,12.527,12.527,0,0,1,3.066,4.379,13.247,13.247,0,0,1,1.163,5.363,10.871,10.871,0,0,1-3.783,8.372A11.116,11.116,0,0,1,34.29,601.5a12.969,12.969,0,0,1-1.668,16.327,12.519,12.519,0,0,1-5.154,3.186,29.968,29.968,0,0,1-7.835.864Zm6.941-26.245h2.174q3.872,0,5.676-1.711a6.653,6.653,0,0,0,1.8-5.051,6.34,6.34,0,0,0-1.846-4.929,7.7,7.7,0,0,0-5.363-1.683H16.059Zm0,19.722h4.29q4.706,0,6.91-1.848a6.379,6.379,0,0,0,2.325-5.064,6.492,6.492,0,0,0-2.235-5q-2.174-1.993-7.775-2H16.059Z"/><path class="cls-1" d="M84.605,582.405H66.165v11.053h17.9v6.523h-17.9v15.373h18.44v6.523H59.224V575.882H84.605Z"/><path class="cls-1" d="M134.773,610.707H115.082l-5.124,11.17h-7.479l22.761-48.883L147.2,621.877h-7.6Zm-2.832-6.525-6.821-15.639-7.15,15.639Z"/><path class="cls-1" d="M172.157,575.882v27.706q0,5.928,1.938,8.667a10.355,10.355,0,0,0,16.293,0q1.938-2.649,1.938-8.667V575.882h6.941v29.61a16.563,16.563,0,0,1-4.53,11.976,17.514,17.514,0,0,1-24.993,0,16.57,16.57,0,0,1-4.528-11.976v-29.61Z"/><path class="cls-1" d="M258.31,578.355v8.223q-6.015-5.037-12.452-5.034a15.851,15.851,0,0,0-11.945,5.093,17.175,17.175,0,0,0-4.886,12.393,16.759,16.759,0,0,0,4.886,12.213,16.143,16.143,0,0,0,11.976,4.975,14.7,14.7,0,0,0,6.224-1.192,17.921,17.921,0,0,0,2.966-1.609,34.943,34.943,0,0,0,3.231-2.442v8.371a25.076,25.076,0,0,1-12.511,3.365,23.088,23.088,0,0,1-16.831-6.88,22.813,22.813,0,0,1-6.941-16.742,23.621,23.621,0,0,1,5.809-15.669,23.124,23.124,0,0,1,18.5-8.43A23.473,23.473,0,0,1,258.31,578.355Z"/><path class="cls-1" d="M289.322,593.876h19.839V575.882H316.1v46h-6.941V600.4H289.322v21.478h-6.941V575.882h6.941Z"/><path class="cls-1" d="M366.538,582.405H348.1v11.053H366v6.523H348.1v15.373h18.44v6.523H341.157V575.882h25.381Z"/><path class="cls-1" d="M412.652,582.405H396.626v11.053h15.461v6.523H396.626v21.9h-6.941V575.882h22.967Z"/><path class="cls-1" d="M483.167,602.275l14.239,19.6h-8.491L475.779,603.05h-1.251v18.827h-6.941V575.882h8.131q9.115,0,13.169,3.426a12.594,12.594,0,0,1,4.468,10.069,13.073,13.073,0,0,1-2.8,8.4A12.482,12.482,0,0,1,483.167,602.275ZM474.528,597h2.2q9.858,0,9.86-7.538,0-7.058-9.593-7.061h-2.472Z"/><path class="cls-1" d="M515.012,598.671a22.53,22.53,0,0,1,7.119-16.681,23.438,23.438,0,0,1,17.041-6.972,24.058,24.058,0,0,1,23.92,23.921A22.62,22.62,0,0,1,556,615.77a24.306,24.306,0,0,1-33.186.775Q515.013,609.723,515.012,598.671Zm7,.089a16.618,16.618,0,0,0,5.126,12.542,16.966,16.966,0,0,0,23.979-.09,17.847,17.847,0,0,0,.058-24.664,16.22,16.22,0,0,0-12.092-5,16.385,16.385,0,0,0-12.126,5A16.589,16.589,0,0,0,522.012,598.76Z"/><path class="cls-1" d="M585.852,621.877V575.882h6.911a30.235,30.235,0,0,1,7.359.717,11.057,11.057,0,0,1,4.677,2.411,12.529,12.529,0,0,1,3.067,4.379,13.245,13.245,0,0,1,1.162,5.363,10.87,10.87,0,0,1-3.782,8.372,11.109,11.109,0,0,1,5.778,4.376,12.971,12.971,0,0,1-1.667,16.327,12.526,12.526,0,0,1-5.154,3.186,29.971,29.971,0,0,1-7.836.864Zm6.942-26.245h2.174q3.87,0,5.675-1.711a6.649,6.649,0,0,0,1.8-5.051,6.339,6.339,0,0,0-1.845-4.929,7.7,7.7,0,0,0-5.363-1.683h-2.442Zm0,19.722h4.29q4.706,0,6.91-1.848a6.379,6.379,0,0,0,2.325-5.064,6.49,6.49,0,0,0-2.236-5q-2.172-1.993-7.774-2h-3.515Z"/><path class="cls-1" d="M633.308,598.671a22.527,22.527,0,0,1,7.12-16.681,23.434,23.434,0,0,1,17.04-6.972,24.058,24.058,0,0,1,23.92,23.921A22.62,22.62,0,0,1,674.3,615.77a24.306,24.306,0,0,1-33.186.775Q633.308,609.723,633.308,598.671Zm7,.089a16.618,16.618,0,0,0,5.126,12.542,16.966,16.966,0,0,0,23.979-.09,17.846,17.846,0,0,0,.059-24.664,17.154,17.154,0,0,0-24.219,0A16.589,16.589,0,0,0,640.308,598.76Z"/><path class="cls-1" d="M715.2,582.405v39.472h-6.941V582.405H697.684v-6.523h28.06v6.523Z"/><path class="cls-1" d="M752.915,575.882v46h-6.942V575.882Z"/><path class="cls-1" d="M811.986,578.355v8.223q-6.015-5.037-12.452-5.034a15.851,15.851,0,0,0-11.945,5.093A17.175,17.175,0,0,0,782.7,599.03a16.759,16.759,0,0,0,4.886,12.213,16.143,16.143,0,0,0,11.976,4.975,14.708,14.708,0,0,0,6.225-1.192,17.954,17.954,0,0,0,2.965-1.609,34.809,34.809,0,0,0,3.231-2.442v8.371a25.076,25.076,0,0,1-12.511,3.365,23.088,23.088,0,0,1-16.831-6.88,22.813,22.813,0,0,1-6.941-16.742,23.621,23.621,0,0,1,5.809-15.669,23.124,23.124,0,0,1,18.5-8.43A23.473,23.473,0,0,1,811.986,578.355Z"/><path class="cls-1" d="M860.783,582.734l-5.629,3.337a9.673,9.673,0,0,0-3.01-3.574,7.012,7.012,0,0,0-3.842-.953,7.1,7.1,0,0,0-4.8,1.636,5.084,5.084,0,0,0-1.906,4.053q0,3.368,5.006,5.422l4.586,1.876q5.6,2.265,8.192,5.525a12.457,12.457,0,0,1,2.593,8,14.053,14.053,0,0,1-4.232,10.487,14.519,14.519,0,0,1-10.573,4.17,14.154,14.154,0,0,1-9.891-3.543q-3.843-3.548-4.8-9.98l7.03-1.55q.476,4.052,1.67,5.6a7.925,7.925,0,0,0,11.647.8,7.517,7.517,0,0,0,2.143-5.511,7.759,7.759,0,0,0-.371-2.456,6.255,6.255,0,0,0-1.162-2.057,9.338,9.338,0,0,0-2.04-1.757,19.493,19.493,0,0,0-2.98-1.564l-4.438-1.848q-9.442-3.99-9.444-11.677a11.079,11.079,0,0,1,3.963-8.667,14.316,14.316,0,0,1,9.86-3.515Q856.314,574.99,860.783,582.734Z"/><path class="cls-1" d="M951.225,578.355v8.223q-6.015-5.037-12.452-5.034a15.852,15.852,0,0,0-11.945,5.093,17.179,17.179,0,0,0-4.886,12.393,16.763,16.763,0,0,0,4.886,12.213,16.143,16.143,0,0,0,11.976,4.975,14.708,14.708,0,0,0,6.225-1.192,17.914,17.914,0,0,0,2.965-1.609,34.809,34.809,0,0,0,3.231-2.442v8.371a25.075,25.075,0,0,1-12.51,3.365,23.089,23.089,0,0,1-16.832-6.88,22.813,22.813,0,0,1-6.941-16.742,23.621,23.621,0,0,1,5.809-15.669,23.124,23.124,0,0,1,18.5-8.43A23.473,23.473,0,0,1,951.225,578.355Z"/><path class="cls-1" d="M982.239,593.876h19.84V575.882h6.941v46h-6.941V600.4h-19.84v21.478H975.3V575.882h6.941Z"/><path class="cls-1" d="M1061.092,610.707H1041.4l-5.123,11.17H1028.8l22.76-48.883,21.955,48.883h-7.6Zm-2.832-6.525-6.821-15.639-7.15,15.639Z"/><path class="cls-1" d="M1100.237,575.882v39.472h13.526v6.523H1093.3V575.882Z"/><path class="cls-1" d="M1141.318,575.882v39.472h13.525v6.523h-20.466V575.882Z"/><path class="cls-1" d="M1200.838,582.405H1182.4v11.053h17.9v6.523h-17.9v15.373h18.44v6.523h-25.381V575.882h25.381Z"/><path class="cls-1" d="M1223.984,621.877V572.755l33.543,35.092V575.882h6.941v48.8l-33.543-35v32.2Z"/><path class="cls-1" d="M1313.651,597.927h19.006v1.519a31.376,31.376,0,0,1-1.221,9.176,19.53,19.53,0,0,1-4.022,6.911,20.832,20.832,0,0,1-16.294,7.209,22.4,22.4,0,0,1-16.533-6.972,23.949,23.949,0,0,1,17.158-40.78,23.343,23.343,0,0,1,10.069,2.2,29.075,29.075,0,0,1,8.789,7.15l-4.946,4.736q-5.659-7.534-13.792-7.535a16.472,16.472,0,0,0-12.244,5.034,16.811,16.811,0,0,0-4.945,12.391,17.28,17.28,0,0,0,16.681,17.278,13.87,13.87,0,0,0,9.2-3.454,12.3,12.3,0,0,0,4.558-8.343h-11.469Z"/><path class="cls-1" d="M1380.8,582.405h-18.439v11.053h17.9v6.523h-17.9v15.373H1380.8v6.523h-25.38V575.882h25.38Z"/><path class="cls-1" d="M143.085,493.9H44.368V244.336H0V6.962l265.155.681-.019,7.214L7.213,14.194V237.123H44.368V106.8H225.08v7.214H51.581V237.123h91.5Zm-91.5-7.214h84.291V244.336H51.581Z"/><path class="cls-1" d="M264.317,488.678H201.8V447.3h53.6c58.729,0,106.509-44.349,106.509-98.863a92.5,92.5,0,0,0-2.679-22.134l-42.558,0a73.741,73.741,0,0,1,3.774,23.331c0,42.405-36,76.9-80.243,76.9H66.95V319.094H305.829c-11.884-23.16-36.84-39.146-65.635-39.146H201.8V221.912h62.521c59.172,0,113.478,41.987,129.13,99.837l.01.04A133.974,133.974,0,0,1,397.7,355.3C397.7,428.843,337.865,488.678,264.317,488.678Zm-55.308-7.214h55.308A126.288,126.288,0,0,0,386.478,323.612c-14.824-54.752-66.2-94.487-122.161-94.487H209.009v43.61h31.185c32.928,0,61.286,19.106,73.64,46.359l50.91-.014.735,2.646a99.737,99.737,0,0,1,3.634,26.71c0,58.492-51.015,106.076-113.722,106.076H209.009ZM74.163,419.328H240.194c40.268,0,73.029-31.263,73.029-69.69a66.583,66.583,0,0,0-4.207-23.331H74.163Z"/><path class="cls-1" d="M264.317,488.678H201.8V447.3h53.6c58.729,0,106.509-44.349,106.509-98.863a92.5,92.5,0,0,0-2.679-22.134l-42.558,0a73.741,73.741,0,0,1,3.774,23.331c0,42.405-36,76.9-80.243,76.9H66.95V319.094H305.829c-11.884-23.16-36.84-39.146-65.635-39.146H201.8V221.912h62.521c59.172,0,113.478,41.987,129.13,99.837l.01.04A133.974,133.974,0,0,1,397.7,355.3C397.7,428.843,337.865,488.678,264.317,488.678Zm-55.308-7.214h55.308A126.288,126.288,0,0,0,386.478,323.612c-14.824-54.752-66.2-94.487-122.161-94.487H209.009v43.61h31.185c32.928,0,61.286,19.106,73.64,46.359l50.91-.014.735,2.646a99.737,99.737,0,0,1,3.634,26.71c0,58.492-51.015,106.076-113.722,106.076H209.009ZM74.163,419.328H240.194c40.268,0,73.029-31.263,73.029-69.69a66.583,66.583,0,0,0-4.207-23.331H74.163Z"/><path class="cls-1" d="M397.7,150.815H270.664v-3.606c0-18.306-20.45-33.2-45.584-33.2V106.8c27.524,0,50.195,16.207,52.588,36.807H390.486A128.624,128.624,0,0,0,261.708,14.857V7.643A135.847,135.847,0,0,1,397.7,143.635Z"/><path class="cls-1" d="M599.326,455.769H489.645V148.3H599.326Zm-102.467-7.214h95.254V155.514H496.859Z"/><polygon class="cls-1" points="625.531 493.898 540.879 493.898 540.879 26.769 749.986 26.769 749.986 33.982 548.092 33.982 548.092 486.684 618.318 486.684 618.318 155.514 592.113 155.514 592.113 76.812 725.355 76.812 725.355 84.025 599.326 84.025 599.326 148.301 625.531 148.301 625.531 493.898"/><polygon class="cls-1" points="489.645 73.207 489.645 6.972 766.9 6.972 766.9 14.185 496.859 14.185 496.859 65.773 544.378 64.336 544.594 71.545 489.645 73.207"/><polygon class="cls-1" points="905.986 493.898 803.463 493.898 643.762 247.593 621.842 247.091 622.007 239.877 647.74 240.469 648.778 242.068 807.384 486.684 892.602 486.684 718.925 222.877 724.951 218.909 905.986 493.898"/><path class="cls-1" d="M724.65,226.1v-7.213c35.891,0,64.008-29.385,64.008-66.9,0-37.474-29.408-67.96-65.553-67.96V76.812c40.122,0,72.766,33.721,72.766,75.173C795.871,193.542,764.587,226.1,724.65,226.1Z"/><path class="cls-1" d="M837.849,260.743,818.258,234.15l1.949-2.183c19.065-21.352,29.563-50.652,29.563-82.506,0-64.755-43.83-115.479-99.784-115.479V26.769c60,0,107,53.891,107,122.692,0,32.547-10.442,62.636-29.469,85.093l10.933,14.84c22.8-26.306,36.824-64.329,36.824-100.377,0-73.086-51.443-134.832-112.337-134.832V6.972c64.8,0,119.55,65.047,119.55,142.045,0,39.906-15.577,80.482-41.672,108.539Z"/><path class="cls-1" d="M1203.743,461.437c-115.185,0-208.9-93.709-208.9-208.894A207.311,207.311,0,0,1,1057.7,103.177l5.044,5.156a200.159,200.159,0,0,0-60.687,144.21c0,111.207,90.476,201.681,201.683,201.681a200.946,200.946,0,0,0,168.067-90.157l-12.546-8.27a187.815,187.815,0,0,1-26.142,31.289l-5-5.2a180.583,180.583,0,0,0,27.059-33.038l1.968-3.088,24.6,16.219-1.916,3A208.171,208.171,0,0,1,1203.743,461.437Z"/><path class="cls-1" d="M1345.478,109.061a201.684,201.684,0,0,0-282.731-.728l-5.044-5.156a208.9,208.9,0,0,1,292.842.751Z"/><path class="cls-1" d="M1203.743,505.084a250.513,250.513,0,0,1-181.5-76.939l-2.506-2.587,3.055-2.964,85.261-74.095a136.2,136.2,0,0,1,2.369-194.342l-88.492-76.9,3.21-3.266a252.538,252.538,0,0,1,357.7.512l2.656,2.669-87.489,79.8-3.639,2.578-2.146-1.977a129.1,129.1,0,1,0-1.945,191.682l2.834-2.963,91.932,79.886-2.736,2.735C1333.2,478.034,1269.777,505.084,1203.743,505.084Zm-173.67-79.263a243.279,243.279,0,0,0,173.67,72.05c62.883,0,123.356-25.3,170.715-71.341l-81.05-70.43a136.194,136.194,0,0,1-180.115-2.594Zm2.416-348.946,82.692,71.858-4.5,5.182q2.814-2.683,5.791-5.22a136.317,136.317,0,0,1,178.33,1.484l80.262-73.24a245.329,245.329,0,0,0-342.571-.064Z"/><path class="cls-2" d="M1363.979,270.326v6.386h-32.971l18.384-22.016a40.617,40.617,0,0,0,5.01-7.259,12.79,12.79,0,0,0,1.58-5.682,7.652,7.652,0,0,0-2.168-5.763,8.172,8.172,0,0,0-5.933-2.1,7.684,7.684,0,0,0-5.547,2.1,8.274,8.274,0,0,0-2.453,5.528h-7.7a13.445,13.445,0,0,1,4.436-10.57q4.437-3.949,11.932-3.948,7.127,0,11.242,3.662a12.686,12.686,0,0,1,4.118,9.983,19.691,19.691,0,0,1-2.369,9.093q-2.37,4.584-10.032,13.327l-6.254,7.259Z"/><path class="cls-2" d="M1409.624,253.016q0,11.73-4.721,18.368a16.019,16.019,0,0,1-26.017-.066q-4.651-6.708-4.655-18.839,0-12.033,4.708-18.755A15.075,15.075,0,0,1,1392.012,227a14.831,14.831,0,0,1,13.042,6.737Q1409.623,240.48,1409.624,253.016Zm-17.847,18.117a7.913,7.913,0,0,0,7.378-4.689q2.469-4.689,2.469-14.034,0-9.075-2.435-13.83t-7.111-4.756q-4.87,0-7.359,4.74t-2.488,13.981q0,8.975,2.472,13.782T1391.777,271.133Z"/><path class="cls-2" d="M1447.131,270.326v6.386H1414.16l18.384-22.016a40.565,40.565,0,0,0,5.01-7.259,12.79,12.79,0,0,0,1.58-5.682,7.655,7.655,0,0,0-2.167-5.763,8.176,8.176,0,0,0-5.934-2.1,7.686,7.686,0,0,0-5.547,2.1,8.274,8.274,0,0,0-2.453,5.528h-7.695a13.444,13.444,0,0,1,4.435-10.57q4.438-3.949,11.932-3.948,7.126,0,11.242,3.662a12.683,12.683,0,0,1,4.118,9.983,19.69,19.69,0,0,1-2.368,9.093q-2.37,4.584-10.033,13.327l-6.253,7.259Z"/><path class="cls-2" d="M1488.709,270.326v6.386h-32.972l18.385-22.016a40.6,40.6,0,0,0,5.009-7.259,12.777,12.777,0,0,0,1.58-5.682,7.652,7.652,0,0,0-2.167-5.763,8.174,8.174,0,0,0-5.933-2.1,7.682,7.682,0,0,0-5.547,2.1,8.27,8.27,0,0,0-2.453,5.528h-7.7a13.447,13.447,0,0,1,4.435-10.57q4.439-3.949,11.933-3.948,7.125,0,11.242,3.662a12.686,12.686,0,0,1,4.118,9.983,19.691,19.691,0,0,1-2.369,9.093q-2.37,4.584-10.032,13.327l-6.254,7.259Z"/></g></g></svg>